<svg xmlns="http://www.w3.org/2000/svg" width="265.805" height="265.161" viewBox="0 0 249.192 248.589"><path d="M159.586 27.257a93.571 93.571 0 0 0-132.329.299 93.571 93.571 0 0 0 .298 132.328 93.571 93.571 0 0 0 119.382 10.5l76.699 76.354a6.32 6.32 0 0 0 8.957-.02l14.748-14.815a6.32 6.32 0 0 0-.02-8.958L170.6 146.568a93.571 93.571 0 0 0-11.013-119.311zm-17.134 17.212a69.286 69.286 0 0 1 .221 97.985 69.286 69.286 0 0 1-97.985.22 69.286 69.286 0 0 1-.22-97.984 69.286 69.286 0 0 1 97.984-.22z" fill="#4c4c4c"/></svg>