<svg xmlns="http://www.w3.org/2000/svg" width="1022.58" height="394.867" viewBox="0 0 958.668 370.188"><g font-weight="400" font-size="90" font-family="Anton" letter-spacing="0" word-spacing="0" fill="#4f4f4f"><path style="line-height:125%;-inkscape-font-specification:Anton" d="M356.77 184.197l27.024-153.646h46.863l-3.606 93.726 29.363-93.726h47.22l-27.023 153.646h-28.082L468.002 73.48l-37.18 110.718h-27.546l.692-110.718-19.473 110.718H356.77zM526.637 185.628q-18.602 0-26.279-11.268-7.645-11.448-4.027-32.017l12.867-73.157q3.492-19.854 14.912-29.87 11.452-10.196 30.054-10.196 18.602 0 26.468 10.196 7.897 10.016 4.405 29.87l-12.867 73.157q-3.65 20.748-15.29 32.017-11.64 11.268-30.243 11.268zm4.97-28.26q4.115 0 6.175-3.578 2.06-3.577 3.193-10.017l13.213-75.123q.88-5.008-.016-8.05-.685-3.219-4.8-3.219-7.69 0-9.735 11.627l-13.182 74.944q-1.164 6.618-.152 10.017 1.012 3.398 5.305 3.398zM591.34 184.197l8.095-153.825h29.334l-7.136 104.637 28.42-104.637h29.335l-46.015 153.825h-42.034zM659.621 184.197l27.024-153.646h29.692l-27.024 153.646h-29.692zM701.577 184.197L728.6 30.551h61.53l-5.222 29.692H754.68l-5.254 29.87h28.976l-5.096 28.977h-28.977l-6.197 35.237h32.196l-5.254 29.87h-63.497z"/></g><path d="M226.902 38.508A166.288 166.288 0 0 0 11.441 132.74a166.288 166.288 0 0 0 94.23 215.461 166.288 166.288 0 0 0 215.463-94.23 166.288 166.288 0 0 0-94.232-215.463zm-5.676 14.5a35.714 35.714 0 0 1 20.239 46.277 35.714 35.714 0 0 1-46.276 20.237 35.714 35.714 0 0 1-20.237-46.274 35.714 35.714 0 0 1 46.274-20.24zm71.26 89.885a35.714 35.714 0 0 1 23.08 28.202 35.714 35.714 0 0 1-29.955 40.663 35.714 35.714 0 0 1-40.665-29.957 35.714 35.714 0 0 1 29.956-40.663 35.714 35.714 0 0 1 17.583 1.755zM105.518 69.736a35.714 35.714 0 0 1 16.468 11.543 35.714 35.714 0 0 1-5.61 50.194 35.714 35.714 0 0 1-50.195-5.611 35.714 35.714 0 0 1 5.61-50.194 35.714 35.714 0 0 1 33.727-5.932zm68.842 103a22.143 22.143 0 0 1 12.547 28.69 22.143 22.143 0 0 1-28.69 12.55 22.143 22.143 0 0 1-12.55-28.694 22.143 22.143 0 0 1 28.693-12.547zM64.238 177.5a35.714 35.714 0 0 1 23.081 28.202 35.714 35.714 0 0 1-29.956 40.665 35.714 35.714 0 0 1-40.666-29.957 35.714 35.714 0 0 1 29.957-40.665 35.714 35.714 0 0 1 17.584 1.755zm185.376 72.6a35.714 35.714 0 0 1 16.47 11.542 35.714 35.714 0 0 1-5.612 50.195 35.714 35.714 0 0 1-50.195-5.611 35.714 35.714 0 0 1 5.611-50.195 35.714 35.714 0 0 1 33.726-5.93zm-112.54 17.88a35.714 35.714 0 0 1 20.239 46.277 35.714 35.714 0 0 1-46.276 20.237A35.714 35.714 0 0 1 90.8 288.221a35.714 35.714 0 0 1 46.274-20.24z" fill="#4f4f4f"/><g fill="none" stroke="#4f4f4f" stroke-width="7"><path d="M204.004 353.353l97.143 5.715s14.23-1.485 22.857-10l78.153-77.143s18.347-30.159-8.153-35.715c-34.214-2.525-25.714 31.429-25.714 31.429s6.034 23.327 38.312 16.551c32.857-6.898 27.402 10.592 21.688 19.163-5.714 8.572-20.008 22.307-21.428 32.857-1.415 10.506 3.433 37.626 34.877 16.22 21.832-14.863 23.272-57.056 34.878-59.668 10.661-2.4 3.926 60.009 39.408 61.601 36.566 1.642 36.946-25.08 39.408-51.01 2.62-27.597-26.64-58.628-45.96-27.07-20.759 33.908 31.283 52.728 81.674 24.213 19.659-11.124 58.572-32.857 70-67.143 11.429-34.285-18.571-40-30-21.428-11.428 18.571-24.285 110-1.428 134.285 22.857 24.286 31.428 22.858 57.143-14.285 25.714-37.143 52.857-67.143 54.285-104.286 1.429-37.143-34.121-25.672-37.143-14.286-4.372 16.48-5.714 90 22.858 121.429 28.571 31.428 57.142 40 72.857 24.286" stroke-linecap="round"/><path d="M797.221 361.078s89.904-115.158 24.244-329.31C930.562 44.9 953.962 12.496 953.962 12.496s-23.4 245.546-156.74 348.582z"/><path d="M804.004 354.068s87.143-78.572 35-320.715" stroke-dasharray="21,7" stroke-dashoffset="2.8"/><path d="M811.862 346.925s106.428-117.857 126.428-320" stroke-dasharray="21,7" stroke-dashoffset="12.6"/><path d="M844.719 132.639s68.571 6.429 85-10.714M847.856 198.122s48.953 3.72 60.682-6.2M839.85 250.463s34.929 1.782 43.297-2.97" stroke-linecap="round"/></g></svg>