<svg xmlns="http://www.w3.org/2000/svg" width="1031.686" height="400.048" viewBox="0 0 967.206 375.045"><g stroke="#151515" fill="none" stroke-width="7"><path d="M212.542 358.21l97.143 5.715s14.23-1.485 22.857-10l78.153-77.143s18.346-30.159-8.153-35.714c-34.215-2.526-25.714 31.428-25.714 31.428s6.033 23.327 38.311 16.551c32.857-6.897 27.403 10.592 21.689 19.163-5.715 8.572-20.009 22.307-21.429 32.858-1.414 10.506 3.433 37.625 34.877 16.219 21.833-14.863 23.272-57.056 34.878-59.668 10.662-2.4 3.927 60.01 39.408 61.602 36.566 1.64 36.946-25.081 39.408-51.01 2.621-27.597-26.64-58.629-45.959-27.072-20.76 33.91 31.282 52.729 81.674 24.214 19.658-11.124 58.571-32.857 70-67.143 11.428-34.285-18.572-40-30-21.428-11.429 18.571-24.286 110-1.429 134.286 22.857 24.285 31.429 22.857 57.143-14.286 25.714-37.143 52.857-67.143 54.286-104.286 1.428-37.143-34.122-25.672-37.143-14.286-4.373 16.48-5.714 90 22.857 121.429 28.571 31.429 57.143 40 72.857 24.286" stroke-linecap="round"/><path d="M805.759 365.935s89.903-115.158 24.243-329.31C939.1 49.757 962.5 17.353 962.5 17.353s-23.4 245.546-156.74 348.582z"/><path d="M812.542 358.925s87.143-78.572 35-320.715" stroke-dasharray="21,7" stroke-dashoffset="2.8"/><path d="M820.399 351.782s106.429-117.857 126.429-320" stroke-dasharray="21,7" stroke-dashoffset="12.6"/><path d="M853.256 137.496s68.572 6.429 85-10.714M856.393 202.98s48.953 3.72 60.682-6.2M848.387 255.32s34.929 1.782 43.297-2.97" stroke-linecap="round"/></g><g fill="#686868" stroke-width="3.3" font-weight="400" font-size="90" font-family="Anton" letter-spacing="0" word-spacing="0"><path d="M361.022 186.197l27.024-153.646h46.863l-3.606 93.726 29.363-93.726h47.22l-27.024 153.646h-28.081L472.254 75.48l-37.181 110.718h-27.546l.693-110.718-19.473 110.718h-27.725zM530.889 187.628q-18.602 0-26.279-11.268-7.645-11.448-4.027-32.017l12.866-73.157q3.493-19.854 14.913-29.87 11.452-10.196 30.054-10.196 18.602 0 26.468 10.196 7.897 10.016 4.405 29.87l-12.867 73.157q-3.65 20.748-15.29 32.017-11.641 11.268-30.243 11.268zm4.97-28.26q4.114 0 6.175-3.578 2.06-3.577 3.192-10.017L558.44 70.65q.881-5.008-.015-8.05-.686-3.219-4.8-3.219-7.69 0-9.736 11.627l-13.181 74.944q-1.164 6.618-.152 10.017 1.012 3.398 5.305 3.398zM595.59 186.197l8.096-153.825h29.334l-7.135 104.637 28.42-104.637h29.334l-46.015 153.825h-42.033zM663.873 186.197l27.024-153.646h29.691l-27.023 153.646h-29.692zM705.828 186.197l27.024-153.646h61.53l-5.222 29.692H758.93l-5.254 29.87h28.977l-5.097 28.977h-28.976l-6.198 35.237h32.196l-5.253 29.87h-63.498z" style="line-height:125%;-inkscape-font-specification:Anton"/></g><path d="M235.154 44.508A166.288 166.288 0 0 0 19.693 138.74a166.288 166.288 0 0 0 94.23 215.461 166.288 166.288 0 0 0 215.463-94.23 166.288 166.288 0 0 0-94.232-215.463zm-5.676 14.5a35.714 35.714 0 0 1 20.238 46.277 35.714 35.714 0 0 1-46.275 20.237 35.714 35.714 0 0 1-20.238-46.274 35.714 35.714 0 0 1 46.275-20.24zm71.26 89.885a35.714 35.714 0 0 1 23.08 28.202 35.714 35.714 0 0 1-29.955 40.663 35.714 35.714 0 0 1-40.666-29.957 35.714 35.714 0 0 1 29.956-40.663 35.714 35.714 0 0 1 17.584 1.755zM113.77 75.736a35.714 35.714 0 0 1 16.468 11.543 35.714 35.714 0 0 1-5.61 50.194 35.714 35.714 0 0 1-50.196-5.611 35.714 35.714 0 0 1 5.61-50.194 35.714 35.714 0 0 1 33.728-5.932zm68.841 103a22.143 22.143 0 0 1 12.548 28.69 22.143 22.143 0 0 1-28.691 12.55 22.143 22.143 0 0 1-12.549-28.694 22.143 22.143 0 0 1 28.692-12.547zM72.49 183.5a35.714 35.714 0 0 1 23.081 28.202 35.714 35.714 0 0 1-29.957 40.665 35.714 35.714 0 0 1-40.665-29.957 35.714 35.714 0 0 1 29.957-40.665 35.714 35.714 0 0 1 17.584 1.755zm185.376 72.6a35.714 35.714 0 0 1 16.47 11.542 35.714 35.714 0 0 1-5.612 50.195 35.714 35.714 0 0 1-50.195-5.611 35.714 35.714 0 0 1 5.61-50.195 35.714 35.714 0 0 1 33.727-5.931zm-112.54 17.88a35.714 35.714 0 0 1 20.238 46.277 35.714 35.714 0 0 1-46.275 20.237 35.714 35.714 0 0 1-20.238-46.274 35.714 35.714 0 0 1 46.275-20.24z" fill="#252525"/><g stroke="#8f7202" fill="none" stroke-width="7"><path d="M208.256 353.353l97.143 5.715s14.23-1.485 22.857-10l78.153-77.143s18.347-30.159-8.153-35.715c-34.214-2.525-25.714 31.429-25.714 31.429s6.034 23.327 38.311 16.551c32.857-6.898 27.403 10.592 21.689 19.163-5.714 8.572-20.009 22.307-21.429 32.857-1.414 10.506 3.434 37.626 34.878 16.22 21.832-14.863 23.271-57.056 34.877-59.668 10.662-2.4 3.927 60.009 39.408 61.601 36.567 1.642 36.946-25.08 39.409-51.01 2.62-27.597-26.64-58.628-45.96-27.07-20.759 33.908 31.283 52.728 81.674 24.213 19.659-11.124 58.571-32.857 70-67.143 11.429-34.285-18.571-40-30-21.428-11.429 18.571-24.286 110-1.429 134.285 22.858 24.286 31.429 22.858 57.143-14.285 25.715-37.143 52.857-67.143 54.286-104.286 1.429-37.143-34.122-25.672-37.143-14.286-4.372 16.48-5.714 90 22.857 121.429 28.572 31.428 57.143 40 72.857 24.286" stroke-linecap="round"/><path d="M801.473 361.078s89.904-115.158 24.244-329.31C934.813 44.9 958.213 12.496 958.213 12.496s-23.4 245.546-156.74 348.582z"/><path d="M808.256 354.068s87.143-78.572 35-320.715" stroke-dasharray="21,7" stroke-dashoffset="2.8"/><path d="M816.113 346.925s106.429-117.857 126.429-320" stroke-dasharray="21,7" stroke-dashoffset="12.6"/><path d="M848.97 132.639s68.572 6.429 85-10.714M852.107 198.122s48.954 3.72 60.682-6.2M844.102 250.463s34.928 1.782 43.297-2.97" stroke-linecap="round"/></g><path d="M229.44 37.65a166.288 166.288 0 0 0-215.462 94.233 166.288 166.288 0 0 0 94.231 215.461 166.288 166.288 0 0 0 215.463-94.23A166.288 166.288 0 0 0 229.44 37.65zm-5.677 14.501a35.714 35.714 0 0 1 20.24 46.277 35.714 35.714 0 0 1-46.276 20.237 35.714 35.714 0 0 1-20.238-46.274 35.714 35.714 0 0 1 46.274-20.24zm71.26 89.885a35.714 35.714 0 0 1 23.081 28.202 35.714 35.714 0 0 1-29.956 40.663 35.714 35.714 0 0 1-40.665-29.957 35.714 35.714 0 0 1 29.956-40.663 35.714 35.714 0 0 1 17.584 1.755zM108.056 68.879a35.714 35.714 0 0 1 16.469 11.543 35.714 35.714 0 0 1-5.61 50.194 35.714 35.714 0 0 1-50.196-5.611 35.714 35.714 0 0 1 5.61-50.194 35.714 35.714 0 0 1 33.727-5.932zm68.842 102.999a22.143 22.143 0 0 1 12.548 28.69 22.143 22.143 0 0 1-28.691 12.55 22.143 22.143 0 0 1-12.55-28.693 22.143 22.143 0 0 1 28.693-12.547zm-110.123 4.766a35.714 35.714 0 0 1 23.082 28.202A35.714 35.714 0 0 1 59.9 245.51a35.714 35.714 0 0 1-40.665-29.957A35.714 35.714 0 0 1 49.19 174.89a35.714 35.714 0 0 1 17.584 1.755zm185.377 72.6a35.714 35.714 0 0 1 16.469 11.541 35.714 35.714 0 0 1-5.611 50.196 35.714 35.714 0 0 1-50.196-5.611 35.714 35.714 0 0 1 5.611-50.196 35.714 35.714 0 0 1 33.727-5.93zm-112.54 17.88a35.714 35.714 0 0 1 20.238 46.277 35.714 35.714 0 0 1-46.275 20.237 35.714 35.714 0 0 1-20.238-46.274 35.714 35.714 0 0 1 46.274-20.24z" fill="#c1bfb1" stroke="#8f7202" stroke-width="5" stroke-linecap="round"/></svg>